<?xml version="1.0" encoding="iso-8859-1"?>
<!-- Uploaded to: SVG Repo, www.svgrepo.com, Generator: SVG Repo Mixer Tools -->
<svg fill="#000000" height="800px" width="800px" version="1.1" id="Layer_1" xmlns="http://www.w3.org/2000/svg" xmlns:xlink="http://www.w3.org/1999/xlink" 
	 viewBox="0 0 511.999 511.999" xml:space="preserve">
<g>
	<g>
		<path d="M511.181,239.932c-1.586-4.887-5.264-8.697-10.092-10.455L141.755,98.691c-6.305-2.294-13.127-1.997-19.208,0.839
			c-6.081,2.836-10.693,7.87-12.988,14.174l-14.623,40.177c-3.123,8.584,1.318,18.11,9.903,21.234l0.501,0.183l-14.806,40.678
			c-2.295,6.305-1.997,13.126,0.839,19.207c2.836,6.081,7.869,10.693,14.174,12.988l108.228,39.393v37.179
			c-1.165,0.795-2.248,1.725-3.191,2.812c-0.764,0.882-1.423,1.835-1.977,2.839H50.237v-9.086c0-13.851-11.268-25.119-25.119-25.119
			H8.017C3.589,296.19,0,299.78,0,304.207v102.612c0,4.427,3.589,8.017,8.017,8.017h17.102c13.851,0,25.119-11.268,25.119-25.119
			v-9.086h162.588c3.395,10.007,12.936,17.102,23.8,17.102h21.641c12.42,0,23.11-9.271,24.866-21.567l5.059-35.413
			c0.68-4.758-0.736-9.568-3.885-13.199c-0.944-1.088-2.026-2.017-3.191-2.812v-12.668L394.82,353.46
			c2.804,1.021,5.709,1.529,8.607,1.529c3.618,0,7.224-0.792,10.6-2.367c6.081-2.836,10.693-7.869,12.988-14.174l3.107-8.537
			l10.299,3.749c1.864,0.679,3.783,1.005,5.678,1.005c5.382,0,10.565-2.632,13.718-7.3l49.334-73.042
			C512.027,250.063,512.766,244.818,511.181,239.932z M34.204,389.717c0,5.01-4.076,9.086-9.086,9.086h-9.085v-86.579h9.085
			c5.01,0,9.086,4.076,9.086,9.086V389.717z M50.237,364.599v-18.171H207.51l2.595,18.171H50.237z M272.32,338.486l-5.059,35.413
			c-0.635,4.448-4.502,7.801-8.995,7.801h-21.641c-4.493,0-8.359-3.353-8.995-7.801l-5.059-35.413
			c-0.01-0.066-0.034-0.242,0.125-0.425s0.337-0.184,0.403-0.184h48.69c0.067,0,0.244,0,0.403,0.184
			C272.352,338.244,272.328,338.42,272.32,338.486z M229.809,321.843V293.4l35.273,12.838v15.605H229.809z M495.865,245.346
			l-49.334,73.042c-0.137,0.203-0.392,0.286-0.625,0.202l-49.972-18.189c-4.16-1.513-8.762,0.631-10.275,4.792
			c-1.515,4.16,0.631,8.761,4.792,10.275l24.607,8.956l-3.107,8.537c-0.829,2.281-2.498,4.101-4.698,5.127
			c-2.201,1.026-4.668,1.133-6.948,0.304L111.031,233.105c-2.28-0.829-4.101-2.498-5.126-4.698c-1.025-2.2-1.133-4.667-0.302-6.948
			l14.806-40.678l60.441,21.999c7.251,2.639,13.845,6.585,19.599,11.73l49.012,43.825c7.281,6.511,15.626,11.504,24.802,14.845
			l41.249,15.012c4.161,1.514,8.761-0.631,10.275-4.792c1.515-4.16-0.631-8.761-4.792-10.275l-41.249-15.012
			c-7.251-2.639-13.845-6.586-19.599-11.73l-49.012-43.825c-7.281-6.509-15.626-11.503-24.802-14.844l-76.008-27.665
			c-0.277-0.101-0.421-0.408-0.32-0.685l14.623-40.177c0.829-2.28,2.498-4.101,4.698-5.126c2.2-1.026,4.667-1.134,6.948-0.304
			l359.334,130.786c0.073,0.027,0.245,0.089,0.326,0.338C496.011,245.13,495.909,245.282,495.865,245.346z"/>
	</g>
</g>
<g>
	<g>
		<path d="M363.789,288.703l-10.987-3.999c-4.161-1.515-8.761,0.631-10.275,4.792c-1.515,4.16,0.631,8.76,4.792,10.275l10.987,3.999
			c0.905,0.329,1.831,0.485,2.741,0.485c3.274,0,6.349-2.021,7.533-5.277C370.094,294.818,367.949,290.217,363.789,288.703z"/>
	</g>
</g>
</svg>