<?xml version="1.0" encoding="iso-8859-1"?>
<!-- Uploaded to: SVG Repo, www.svgrepo.com, Generator: SVG Repo Mixer Tools -->
<!DOCTYPE svg PUBLIC "-//W3C//DTD SVG 1.1//EN" "http://www.w3.org/Graphics/SVG/1.1/DTD/svg11.dtd">
<svg fill="#000000" height="800px" width="800px" version="1.1" id="Capa_1" xmlns="http://www.w3.org/2000/svg" xmlns:xlink="http://www.w3.org/1999/xlink" 
	 viewBox="0 0 209.667 209.667" xml:space="preserve">
<path d="M197.728,207.412H11.939c-1.657,0-3-1.343-3-3v-91.833H3c-1.657,0-3-1.343-3-3s1.343-3,3-3h51.877V91.114
	c0-7.724,4.633-14.566,11.804-17.434l22.872-9.149c0.754-0.304,1.599-0.285,2.342,0.048c0.742,0.333,1.317,0.952,1.594,1.717
	l5.382,14.88l0.735-2.114l-1.757-4.294c-0.378-0.925-0.271-1.978,0.286-2.808s1.491-1.328,2.491-1.328h11.173
	c1,0,1.934,0.498,2.491,1.328c0.557,0.83,0.664,1.883,0.285,2.808l-1.757,4.294l0.735,2.114l5.382-14.88
	c0.276-0.765,0.852-1.384,1.594-1.717c0.742-0.332,1.587-0.351,2.342-0.048l22.872,9.149c7.17,2.867,11.804,9.71,11.804,17.434
	v15.466h49.119c1.657,0,3,1.343,3,3s-1.343,3-3,3h-5.938v91.833C200.728,206.07,199.385,207.412,197.728,207.412z M14.939,201.412
	h179.789v-88.833H14.939V201.412z M60.877,106.579h90.67V91.114c0-5.255-3.152-9.912-8.032-11.863l-19.992-7.997l-7.202,19.915
	c-0.43,1.188-1.559,1.979-2.821,1.979c-0.006,0-0.012,0-0.019,0c-1.27-0.008-2.397-0.814-2.814-2.015L106.78,79.96
	c-0.24-0.69-0.221-1.444,0.057-2.121l0.494-1.208h-2.236l0.494,1.208c0.277,0.677,0.296,1.431,0.057,2.121l-3.886,11.173
	c-0.417,1.2-1.545,2.007-2.815,2.015c-0.006,0-0.013,0-0.019,0c-1.263,0-2.391-0.791-2.821-1.979l-7.203-19.915L68.909,79.25
	c-4.879,1.951-8.032,6.608-8.032,11.863V106.579z M106.212,66.884c-2.594,0-5.188-0.489-7.658-1.47
	c-1.919-0.761-3.52-1.731-4.757-2.886c-2.972-2.774-5.929-8.201-7.349-11.019c-2.92-0.443-6.643-2.617-8.283-8.887
	c-0.98-3.749-0.72-6.819,0.774-9.126c0.622-0.96,1.358-1.635,2.062-2.107c0.007-0.67,0.036-1.471,0.106-2.368
	c-1.337-2.291-3.407-7.736,0.853-15.293c3.225-5.723,7.773-6.923,11.086-6.609c1.734-2.284,5.648-4.95,14.391-4.863
	c6.179,0.067,11.105,2.313,14.191,4.224c5.933,2.928,9.573,9.033,10.472,12.209v0.001c1.315,4.654,0.147,10.366-0.487,12.833
	c0.645,0.464,1.305,1.102,1.871,1.975c1.494,2.308,1.754,5.378,0.773,9.127c-1.639,6.268-5.361,8.441-8.282,8.886
	c-1.42,2.817-4.377,8.244-7.35,11.019c-1.235,1.153-2.836,2.124-4.756,2.886C111.401,66.395,108.807,66.884,106.212,66.884z
	 M88.338,45.538c1.148,0,2.22,0.661,2.72,1.734c1.028,2.209,4.259,8.466,6.834,10.869c0.687,0.642,1.654,1.212,2.875,1.695
	c3.461,1.373,7.43,1.373,10.891,0c1.222-0.484,2.188-1.055,2.875-1.695c2.582-2.41,5.809-8.662,6.834-10.868
	c0.62-1.331,1.908-2.065,3.322-1.675c0.339,0.046,2.568,0.085,3.765-4.493c0.514-1.964,0.512-3.548-0.005-4.346
	c-0.221-0.341-0.563-0.516-0.565-0.517c-1.54-0.257-2.625-1.65-2.497-3.205l0,0c0.005-0.052,0.034-0.47,0.039-1.148
	c-0.037-0.468-0.224-1.083-0.409-1.359c-1.209-0.58-5.835-1.473-9.934-2.264c-2.054-0.396-4.313-0.833-6.726-1.326
	c-1.621-0.293-3.08-0.707-4.285-1.224c-3.19-1.184-5.646-2.762-7.436-4.215c-0.633,1.356-1.476,2.774-2.576,3.962
	c-2.374,2.564-5.181,4.105-7.027,4.922c-0.077,1.604,0.003,2.635,0.004,2.648c0.064,0.797-0.054,1.574-0.575,2.182
	c-0.507,0.593-1.095,0.951-1.864,1.022c-1.064,0.357-1.312,2.253-0.628,4.867c1.271,4.859,3.741,4.497,3.766,4.493
	C87.938,45.558,88.14,45.538,88.338,45.538z M96.521,13.146c0.536,0.226,1.007,0.606,1.342,1.113
	c0.013,0.018,2.607,3.742,8.358,5.855c0.057,0.021,0.111,0.043,0.166,0.066c0.795,0.348,1.835,0.639,3.091,0.865
	c0.039,0.007,0.085,0.017,0.124,0.025c2.346,0.479,4.584,0.911,6.617,1.304c5.329,1.028,8.463,1.657,10.435,2.36
	c0.094-1.475,0.045-2.971-0.276-4.23c-0.001-0.002-0.002-0.005-0.002-0.007c-0.001-0.001-0.001-0.002-0.001-0.003
	c-0.015-0.059-0.031-0.116-0.047-0.175c-0.011-0.038-0.022-0.077-0.035-0.118c-0.549-1.757-2.871-5.849-6.752-8.042
	c-0.201-0.113-0.405-0.222-0.614-0.324c-0.03-0.014-0.06-0.027-0.089-0.042c-0.086-0.044-0.171-0.091-0.253-0.143
	c-2.422-1.52-6.334-3.343-11.212-3.396c-0.133-0.002-0.264-0.002-0.393-0.002c-6.671,0-8.95,1.917-9.348,2.795
	C97.629,11.943,97.224,12.612,96.521,13.146z M87.188,16.674c-1.965,3.487-1.941,6.1-1.54,7.724c1.213-0.639,2.718-1.615,4.009-3.01
	c1.627-1.758,2.559-5.041,2.757-6.053c0.157-0.802,0.628-1.486,1.283-1.922c-0.089-0.033-0.176-0.069-0.263-0.107
	C92.883,13.085,89.755,12.12,87.188,16.674z"/>
</svg>